<svg version="1.1" xmlns="http://www.w3.org/2000/svg" viewBox="0 0 1455.0224168565537 603.733357747396" width="1455.0224168565537" height="603.733357747396">
  <!-- svg-source:excalidraw -->
  
  <defs>
    <style class="style-fonts">
      @font-face {
        font-family: "Virgil";
        src: url("https://excalidraw.com/Virgil.woff2");
      }
      @font-face {
        font-family: "Cascadia";
        src: url("https://excalidraw.com/Cascadia.woff2");
      }
    </style>
  </defs>
  <rect x="0" y="0" width="1455.0224168565537" height="603.733357747396" fill="#ffffff"></rect><g stroke-linecap="round" transform="translate(10 107.73330349392359) rotate(0 132 135)"><path d="M81.88 9.8 C93.85 2.44, 109.91 0.86, 124.07 0.09 C138.23 -0.68, 153.15 1.42, 166.85 5.2 C180.56 8.98, 194.57 14.73, 206.31 22.76 C218.04 30.79, 228.68 41.62, 237.28 53.37 C245.88 65.12, 253.63 79.14, 257.92 93.27 C262.2 107.4, 263.28 123.68, 263.01 138.16 C262.74 152.64, 260.87 166.56, 256.31 180.15 C251.74 193.75, 244.55 208.31, 235.62 219.75 C226.68 231.19, 214.96 241.02, 202.71 248.82 C190.47 256.61, 176.12 262.96, 162.16 266.51 C148.19 270.06, 133.12 271.42, 118.91 270.11 C104.71 268.79, 89.97 264.75, 76.93 258.65 C63.89 252.54, 50.89 243.66, 40.67 233.47 C30.45 223.27, 22.07 210.5, 15.61 197.5 C9.15 184.51, 3.99 169.91, 1.9 155.49 C-0.2 141.07, 0.39 125.51, 3.04 111 C5.69 96.49, 10.76 81.28, 17.79 68.43 C24.82 55.58, 33.86 43.76, 45.21 33.9 C56.55 24.05, 77.94 13.57, 85.85 9.29 C93.76 5.02, 91.88 6.12, 92.66 8.25 M108.97 2.95 C122.02 -1.89, 137.11 -1.96, 150.98 0.1 C164.85 2.15, 179.62 8.37, 192.2 15.27 C204.78 22.17, 216.55 31.03, 226.48 41.5 C236.4 51.98, 245.55 64.69, 251.76 78.12 C257.98 91.56, 262.41 107.28, 263.75 122.09 C265.1 136.91, 263.06 152.92, 259.85 167 C256.65 181.09, 252.01 194.46, 244.52 206.61 C237.03 218.77, 226.02 230.58, 214.93 239.93 C203.84 249.28, 191.7 257.8, 177.99 262.72 C164.29 267.65, 147.38 269.49, 132.69 269.48 C118.01 269.48, 103.42 267.19, 89.87 262.69 C76.32 258.19, 62.39 251.32, 51.4 242.47 C40.41 233.62, 31.81 221.72, 23.91 209.59 C16.02 197.45, 7.81 183.45, 4.03 169.69 C0.24 155.93, 0.01 141.56, 1.21 127.04 C2.42 112.51, 5.89 96.16, 11.28 82.54 C16.66 68.91, 23.98 55.94, 33.53 45.29 C43.08 34.63, 56.03 25.71, 68.58 18.61 C81.13 11.5, 102.17 4.94, 108.84 2.66 C115.52 0.37, 108.39 2.88, 108.65 4.89" stroke="#000000" stroke-width="1" fill="none"></path></g><g transform="translate(110.06193692683274 218.77388803373967) rotate(0 32.09996795654297 24)"><text x="32.09996795654297" y="0" font-family="Virgil, Segoe UI Emoji" font-size="20px" fill="#000000" text-anchor="middle" style="white-space: pre;" direction="ltr" dominant-baseline="text-before-edge">Python</text><text x="32.09996795654297" y="24" font-family="Virgil, Segoe UI Emoji" font-size="20px" fill="#000000" text-anchor="middle" style="white-space: pre;" direction="ltr" dominant-baseline="text-before-edge">server</text></g><g mask="url(#mask-UfTCPlra976jM6trE0jqL)" stroke-linecap="round"><g transform="translate(272.8584925490271 183.56938798120527) rotate(0 149.57746166483514 3.70436789386585)"><path d="M0.65 -1.09 C50.04 0.27, 247.77 6.95, 297.27 8.5 M-0.47 0.95 C49.24 1.94, 250.09 5.89, 299.63 6.75" stroke="#000000" stroke-width="1" fill="none"></path></g><g transform="translate(272.8584925490271 183.56938798120527) rotate(0 149.57746166483514 3.70436789386585)"><path d="M269.43 15.37 C282.99 12.21, 293.14 10.26, 297.8 6.61 M270.57 16.38 C282.17 11.62, 294.12 8.44, 299.22 6.29" stroke="#000000" stroke-width="1" fill="none"></path></g><g transform="translate(272.8584925490271 183.56938798120527) rotate(0 149.57746166483514 3.70436789386585)"><path d="M269.81 -5.15 C283.29 -0.65, 293.3 5.06, 297.8 6.61 M270.96 -4.14 C282.32 -0.89, 294.12 3.94, 299.22 6.29" stroke="#000000" stroke-width="1" fill="none"></path></g></g><mask id="mask-UfTCPlra976jM6trE0jqL"><rect x="0" y="0" fill="#fff" width="670.7893487682408" height="291.36391554526625"></rect><rect x="347.75996344427847" y="168.26665176323573" fill="#000" width="148.12791442871094" height="38.4" opacity="1"></rect></mask><g transform="translate(347.75996344427847 168.26665176323576) rotate(0 74.67599076958379 19.00710411183536)"><text x="74.06395721435547" y="0" font-family="Virgil, Segoe UI Emoji" font-size="16px" fill="#000000" text-anchor="middle" style="white-space: pre;" direction="ltr" dominant-baseline="text-before-edge">send data vectors</text><text x="74.06395721435547" y="19.2" font-family="Virgil, Segoe UI Emoji" font-size="16px" fill="#000000" text-anchor="middle" style="white-space: pre;" direction="ltr" dominant-baseline="text-before-edge">1000 vector/sec</text></g><g stroke-linecap="round" transform="translate(548.7556864420571 10) rotate(0 448.13336520724835 291.866678873698)"><path d="M263.93 25.62 C286.46 13.99, 319.66 11.93, 348.2 7.77 C376.75 3.62, 406.31 1.26, 435.2 0.67 C464.08 0.08, 493.02 1.12, 521.51 4.25 C550.01 7.37, 578.96 12.7, 606.17 19.42 C633.37 26.15, 660.01 34.65, 684.75 44.6 C709.48 54.55, 733.23 66.26, 754.58 79.12 C775.93 91.99, 795.99 106.26, 812.87 121.81 C829.74 137.37, 843.84 155.03, 855.83 172.46 C867.83 189.89, 878.23 207.8, 884.83 226.38 C891.42 244.96, 894.64 265.16, 895.43 283.95 C896.21 302.75, 894.37 320.62, 889.51 339.15 C884.66 357.68, 876.5 377.19, 866.32 395.12 C856.14 413.04, 843.68 430.55, 828.43 446.7 C813.18 462.85, 794.76 478.31, 774.82 492.02 C754.89 505.74, 732.44 517.86, 708.8 529.01 C685.16 540.15, 659.58 550.93, 632.97 558.91 C606.36 566.89, 577.75 572.79, 549.14 576.88 C520.54 580.96, 490.59 583.08, 461.31 583.41 C432.04 583.75, 402.27 581.96, 373.49 578.91 C344.72 575.86, 315.81 571.66, 288.68 565.1 C261.54 558.54, 235.28 549.55, 210.7 539.55 C186.12 529.54, 162.4 517.96, 141.18 505.07 C119.96 492.17, 100.38 477.61, 83.39 462.18 C66.4 446.75, 51.28 430, 39.24 412.5 C27.2 395.01, 17.52 375.89, 11.17 357.19 C4.82 338.49, 1.9 319.29, 1.15 300.29 C0.4 281.29, 1.9 261.9, 6.66 243.16 C11.42 224.42, 19.35 205.47, 29.71 187.85 C40.08 170.23, 53.43 153.51, 68.87 137.47 C84.31 121.42, 102.47 105.39, 122.33 91.58 C142.19 77.77, 162.22 66.25, 188.02 54.61 C213.83 42.97, 259.65 26.88, 277.15 21.73 C294.66 16.59, 290.39 19.09, 293.05 23.76 M483.23 1.79 C511.26 -1.67, 541.63 5.12, 569.52 10 C597.4 14.89, 624.89 22.32, 650.54 31.08 C676.2 39.84, 700.35 50.91, 723.45 62.57 C746.54 74.23, 770.02 86.53, 789.1 101.05 C808.19 115.57, 823.92 133.14, 837.96 149.7 C851.99 166.25, 863.95 182.61, 873.31 200.37 C882.66 218.13, 890.61 237.32, 894.07 256.26 C897.53 275.2, 896.3 294.83, 894.08 314.01 C891.86 333.18, 888.54 352.97, 880.75 371.31 C872.97 389.65, 860.71 407.45, 847.36 424.07 C834.01 440.69, 818.71 456.07, 800.67 471.04 C782.63 486.01, 761.16 501.25, 739.11 513.91 C717.07 526.56, 693.48 537.75, 668.41 546.95 C643.34 556.16, 616.58 563.18, 588.69 569.14 C560.81 575.1, 530.41 580.18, 501.1 582.7 C471.8 585.22, 441.58 585.99, 412.88 584.26 C384.17 582.53, 356.91 577.46, 328.9 572.32 C300.89 567.18, 271.04 561.71, 244.82 553.41 C218.6 545.11, 194.46 534.56, 171.58 522.53 C148.69 510.49, 126.62 495.63, 107.53 481.21 C88.43 466.8, 71.02 452.31, 57.01 436.03 C43 419.75, 32.29 401.75, 23.47 383.55 C14.65 365.35, 7.84 345.86, 4.08 326.83 C0.31 307.81, -1.02 288.27, 0.88 269.42 C2.78 250.57, 7.59 231.79, 15.48 213.75 C23.38 195.71, 34.83 178.4, 48.25 161.17 C61.68 143.93, 77.84 125.66, 96.03 110.36 C114.22 95.06, 135.5 81.25, 157.4 69.34 C179.3 57.44, 202.16 47.86, 227.42 38.92 C252.69 29.97, 280.96 21.74, 308.99 15.67 C337.02 9.59, 366.64 5.16, 395.58 2.46 C424.52 -0.24, 468.36 -1.39, 482.6 -0.55 C496.84 0.29, 481.81 2.54, 481.03 7.5" stroke="#000000" stroke-width="1" fill="none"></path></g><g transform="translate(922.8889194064669 35.06665886773001) rotate(0 53.351959228515625 9.600000000000001)"><text x="0" y="0" font-family="Virgil, Segoe UI Emoji" font-size="16px" fill="#000000" text-anchor="start" style="white-space: pre;" direction="ltr" dominant-baseline="text-before-edge">Android Client</text></g><g stroke-linecap="round" transform="translate(614.5334235297308 153.02217441134974) rotate(0 117.53317119459814 136.93330722384982)"><path d="M32 0 M32 0 C96.83 -2.9, 163 -2.39, 203.07 0 M32 0 C81.29 -0.05, 129 0.81, 203.07 0 M203.07 0 C223.73 0.81, 233.37 10.14, 235.07 32 M203.07 0 C224.08 1.32, 234.55 12.3, 235.07 32 M235.07 32 C237.38 93.39, 237.64 155.78, 235.07 241.87 M235.07 32 C233.07 114.8, 234.08 199.85, 235.07 241.87 M235.07 241.87 C234.81 263.57, 223.57 272.36, 203.07 273.87 M235.07 241.87 C234.9 265.06, 222.76 274.38, 203.07 273.87 M203.07 273.87 C144.69 274.33, 83.74 271.98, 32 273.87 M203.07 273.87 C137.53 274.04, 73.97 273.59, 32 273.87 M32 273.87 C12.41 274.6, -0.39 262.34, 0 241.87 M32 273.87 C10.76 276.15, 0.3 263.83, 0 241.87 M0 241.87 C1.48 190.93, -0.14 141.74, 0 32 M0 241.87 C-1.02 193.17, -1.32 145.38, 0 32 M0 32 C1.34 10.79, 11.9 0.69, 32 0 M0 32 C0.88 11.15, 9.48 -1.64, 32 0" stroke="#000000" stroke-width="1" fill="none"></path></g><g stroke-linecap="round"><g transform="translate(274.7441010430299 296.7252378452474) rotate(0 136.27359374512548 2.296126589313616)"><path d="M0.54 -0.48 C46.02 0.32, 227.65 4.21, 273.18 5.18 M-0.63 -1.78 C44.68 -0.86, 226.71 5, 272.38 6.37" stroke="#000000" stroke-width="1" fill="none"></path></g><g transform="translate(274.7441010430299 296.7252378452474) rotate(0 136.27359374512548 2.296126589313616)"><path d="M243.08 16.2 C252.08 13.87, 261.72 7.84, 273.04 6.45 M243.59 15.29 C250.43 12.42, 257.26 10.78, 271.56 6.15" stroke="#000000" stroke-width="1" fill="none"></path></g><g transform="translate(274.7441010430299 296.7252378452474) rotate(0 136.27359374512548 2.296126589313616)"><path d="M243.71 -4.31 C252.57 0.09, 262 0.78, 273.04 6.45 M244.22 -5.22 C250.87 -2.94, 257.53 0.55, 271.56 6.15" stroke="#000000" stroke-width="1" fill="none"></path></g></g><mask></mask><g mask="url(#mask-N2BQorBRkxUvFTZ5KEgcb)" stroke-linecap="round"><g transform="translate(543.1339451630921 327.3674295659984) rotate(0 -140.61602429023185 -6.696318027424638)"><path d="M0.97 -0.05 C-45.95 -2.31, -235.05 -11.13, -282.2 -13.34 M0.02 -1.12 C-46.48 -3.24, -232.81 -10.25, -279.98 -12.11" stroke="#000000" stroke-width="1" fill="none"></path></g><g transform="translate(543.1339451630921 327.3674295659984) rotate(0 -140.61602429023185 -6.696318027424638)"><path d="M-251.5 -22.84 C-259.36 -19.89, -266.31 -16.88, -281.86 -10.69 M-252.26 -20.42 C-261.71 -17.4, -270.78 -15.34, -279.57 -12.96" stroke="#000000" stroke-width="1" fill="none"></path></g><g transform="translate(543.1339451630921 327.3674295659984) rotate(0 -140.61602429023185 -6.696318027424638)"><path d="M-252.29 -2.33 C-259.99 -4.41, -266.75 -6.41, -281.86 -10.69 M-253.05 0.09 C-262.21 -4.07, -271 -9.19, -279.57 -12.96" stroke="#000000" stroke-width="1" fill="none"></path></g></g><mask id="mask-N2BQorBRkxUvFTZ5KEgcb"><rect x="0" y="0" fill="#fff" width="924.3969557361473" height="440.12641001091214"></rect><rect x="342.8784622154317" y="301.7879393435415" fill="#000" width="119.24795532226562" height="38.4" opacity="1"></rect></mask><g transform="translate(342.8784622154317 301.78793934354155) rotate(0 59.63945865742858 18.883172195032216)"><text x="59.62397766113281" y="0" font-family="Virgil, Segoe UI Emoji" font-size="16px" fill="#000000" text-anchor="middle" style="white-space: pre;" direction="ltr" dominant-baseline="text-before-edge">TCP connection</text><text x="59.62397766113281" y="19.2" font-family="Virgil, Segoe UI Emoji" font-size="16px" fill="#000000" text-anchor="middle" style="white-space: pre;" direction="ltr" dominant-baseline="text-before-edge">establishment</text></g><g transform="translate(650.3172029335201 157.4415129938298) rotate(0 54.313232421875 10.799999999999997)"><text x="0" y="0" font-family="Virgil, Segoe UI Emoji" font-size="18.619109291895562px" fill="#000000" text-anchor="start" style="white-space: pre;" direction="ltr" dominant-baseline="text-before-edge">MainActivity</text></g><g stroke-linecap="round"><g transform="translate(609.7602780822818 315.18530561212793) rotate(0 -25.564566930784395 0.5290609711122158)"><path d="M0.85 -0.8 C-7.74 -0.58, -42.94 1.34, -51.98 1.85" stroke="#000000" stroke-width="1.5" fill="none" stroke-dasharray="8 9"></path></g><g transform="translate(609.7602780822818 315.18530561212793) rotate(0 -25.564566930784395 0.5290609711122158)"><path d="M-28.87 -6.75 C-35.47 -6.15, -41.24 -3.56, -50.74 2.27" stroke="#000000" stroke-width="1.5" fill="none"></path></g><g transform="translate(609.7602780822818 315.18530561212793) rotate(0 -25.564566930784395 0.5290609711122158)"><path d="M-27.87 11.41 C-34.82 7.16, -40.86 4.91, -50.74 2.27" stroke="#000000" stroke-width="1.5" fill="none"></path></g></g><mask></mask><g transform="translate(620.4817053616201 299.871221853467) rotate(0 53.38446044921875 15.599999999999994)"><text x="0" y="0" font-family="Virgil, Segoe UI Emoji" font-size="13.72765194692575px" fill="#000000" text-anchor="start" style="white-space: pre;" direction="ltr" dominant-baseline="text-before-edge">enter server IP</text><text x="0" y="15.6" font-family="Virgil, Segoe UI Emoji" font-size="13.72765194692575px" fill="#000000" text-anchor="start" style="white-space: pre;" direction="ltr" dominant-baseline="text-before-edge">for connection</text></g><g transform="translate(626.562067161292 342.98177482646975) rotate(0 105.75363159179688 31.19999999999999)"><text x="0" y="0" font-family="Virgil, Segoe UI Emoji" font-size="13.72765194692575px" fill="#000000" text-anchor="start" style="white-space: pre;" direction="ltr" dominant-baseline="text-before-edge">NOTE:</text><text x="0" y="15.6" font-family="Virgil, Segoe UI Emoji" font-size="13.72765194692575px" fill="#000000" text-anchor="start" style="white-space: pre;" direction="ltr" dominant-baseline="text-before-edge">meta data currently</text><text x="0" y="31.2" font-family="Virgil, Segoe UI Emoji" font-size="13.72765194692575px" fill="#000000" text-anchor="start" style="white-space: pre;" direction="ltr" dominant-baseline="text-before-edge">hardcoded and fit as expected</text><text x="0" y="46.8" font-family="Virgil, Segoe UI Emoji" font-size="13.72765194692575px" fill="#000000" text-anchor="start" style="white-space: pre;" direction="ltr" dominant-baseline="text-before-edge">to the server sent data</text></g><g stroke-linecap="round" transform="translate(938.0889248318141 94.35552130805121) rotate(0 168.1998107345289 199.15558030870227)"><path d="M32 0 M32 0 C95.8 -0.74, 160.16 -1.59, 304.4 0 M32 0 C119.37 0.34, 205.51 0.57, 304.4 0 M304.4 0 C324.41 0.01, 336.37 10.12, 336.4 32 M304.4 0 C323.56 -1.56, 335.93 8.39, 336.4 32 M336.4 32 C336.72 137.12, 337.25 242.36, 336.4 366.31 M336.4 32 C336.52 102.62, 337.22 173.02, 336.4 366.31 M336.4 366.31 C338.14 388.45, 326.72 396.74, 304.4 398.31 M336.4 366.31 C334.56 388.11, 326.92 396.64, 304.4 398.31 M304.4 398.31 C222.06 400.28, 141.26 398.76, 32 398.31 M304.4 398.31 C198.63 398.64, 93.3 398.43, 32 398.31 M32 398.31 C10.23 399.79, 0.59 388.28, 0 366.31 M32 398.31 C11.68 399.42, -0.48 386.58, 0 366.31 M0 366.31 C-0.02 255.7, -0.32 145.43, 0 32 M0 366.31 C1.14 243.91, 0.58 121.31, 0 32 M0 32 C1.11 10.08, 9.74 -1.22, 32 0 M0 32 C-1.88 8.54, 10.4 -1.87, 32 0" stroke="#000000" stroke-width="1" fill="none"></path></g><g transform="translate(975.6504548866448 106.77487345389926) rotate(0 80.99064636230469 10.799999999999997)"><text x="0" y="0" font-family="Virgil, Segoe UI Emoji" font-size="18.619109291895562px" fill="#000000" text-anchor="start" style="white-space: pre;" direction="ltr" dominant-baseline="text-before-edge">ConnectionActivity</text></g><g stroke-linecap="round" transform="translate(1283.044653998481 170.17781236436633) rotate(0 54.66668023003467 24.200000000000003)"><path d="M12.1 0 M12.1 0 C44.68 -0.31, 76.16 0.16, 97.23 0 M12.1 0 C43.95 -0.71, 74.89 0.18, 97.23 0 M97.23 0 C105.01 -1.16, 110.26 3.37, 109.33 12.1 M97.23 0 C105.21 -0.32, 108.74 4.91, 109.33 12.1 M109.33 12.1 C108.12 21.76, 107.64 29.16, 109.33 36.3 M109.33 12.1 C109.38 21.24, 108.39 31.53, 109.33 36.3 M109.33 36.3 C110.15 44.74, 103.97 48.57, 97.23 48.4 M109.33 36.3 C110.62 46.6, 105.29 47.23, 97.23 48.4 M97.23 48.4 C66.46 47.39, 40.79 46.85, 12.1 48.4 M97.23 48.4 C67.14 48.46, 36.97 46.98, 12.1 48.4 M12.1 48.4 C4.24 49.19, 1.05 44.33, 0 36.3 M12.1 48.4 C1.79 47.21, -0.52 43.42, 0 36.3 M0 36.3 C0.79 29.58, -1.18 21.94, 0 12.1 M0 36.3 C-0.25 26.24, -0.69 18.3, 0 12.1 M0 12.1 C1.02 3.82, 2.73 1.76, 12.1 0 M0 12.1 C0.78 2.14, 5.46 0.72, 12.1 0" stroke="#000000" stroke-width="1" fill="none"></path></g><g transform="translate(1293.7433624267578 175.17781236436633) rotate(0 43.96797180175781 19.200000000000003)"><text x="43.96797180175781" y="0" font-family="Virgil, Segoe UI Emoji" font-size="16px" fill="#000000" text-anchor="middle" style="white-space: pre;" direction="ltr" dominant-baseline="text-before-edge">Statistics </text><text x="43.96797180175781" y="19.2" font-family="Virgil, Segoe UI Emoji" font-size="16px" fill="#000000" text-anchor="middle" style="white-space: pre;" direction="ltr" dominant-baseline="text-before-edge">calculator</text></g><g stroke-linecap="round"><g transform="translate(1126.5998840332031 431.08179521381885) rotate(0 72.49561901152833 0.21495641597491044)"><path d="M-0.6 -1 C23.48 -0.82, 121.13 1.28, 145.59 1.43" stroke="#000000" stroke-width="1.5" fill="none" stroke-dasharray="8 9"></path></g><g transform="translate(1126.5998840332031 431.08179521381885) rotate(0 72.49561901152833 0.21495641597491044)"><path d="M115.59 9.31 C130.14 6.51, 138.66 5.64, 144.84 -0.28" stroke="#000000" stroke-width="1.5" fill="none"></path></g><g transform="translate(1126.5998840332031 431.08179521381885) rotate(0 72.49561901152833 0.21495641597491044)"><path d="M115.89 -11.21 C130.39 -5.95, 138.79 1.24, 144.84 -0.28" stroke="#000000" stroke-width="1.5" fill="none"></path></g></g><mask></mask><g stroke-linecap="round"><g transform="translate(1273.2668728298609 199.08735650620687) rotate(0 -83.4113480559239 1.3077936788456839)"><path d="M1.03 -1.16 C-27.07 -0.43, -139.58 3.15, -167.85 3.78" stroke="#000000" stroke-width="1.5" fill="none" stroke-dasharray="8 9"></path></g><g transform="translate(1273.2668728298609 199.08735650620687) rotate(0 -83.4113480559239 1.3077936788456839)"><path d="M-141.9 -5.53 C-149.6 -2.51, -161.6 -0.03, -168.17 5.64" stroke="#000000" stroke-width="1.5" fill="none"></path></g><g transform="translate(1273.2668728298609 199.08735650620687) rotate(0 -83.4113480559239 1.3077936788456839)"><path d="M-141.33 14.98 C-149.13 10.58, -161.34 5.64, -168.17 5.64" stroke="#000000" stroke-width="1.5" fill="none"></path></g></g><mask></mask><g stroke-linecap="round"><g transform="translate(581.7111714680992 191.94502984200483) rotate(0 188.03211059458545 -52.748367211711326)"><path d="M-0.82 -0.66 C2.63 -3.27, -3.1 1.23, 19.51 -15.47 C42.13 -32.16, 94.46 -89.39, 134.87 -100.82 C175.29 -112.26, 221.64 -96.93, 261.98 -84.09 C302.31 -71.24, 357.69 -33.87, 376.88 -23.75" stroke="#000000" stroke-width="1.5" fill="none" stroke-dasharray="8 9"></path></g><g transform="translate(581.7111714680992 191.94502984200483) rotate(0 188.03211059458545 -52.748367211711326)"><path d="M346.28 -30.73 C353.5 -29.75, 357.96 -27.18, 375.24 -23.58" stroke="#000000" stroke-width="1.5" fill="none"></path></g><g transform="translate(581.7111714680992 191.94502984200483) rotate(0 188.03211059458545 -52.748367211711326)"><path d="M356.68 -48.42 C361.81 -43.93, 364.17 -37.77, 375.24 -23.58" stroke="#000000" stroke-width="1.5" fill="none"></path></g></g><mask></mask><g stroke-linecap="round" transform="translate(959.4888814290365 157.73337131076374) rotate(0 68 53)"><path d="M26.5 0 M26.5 0 C50.93 -1.66, 73.93 -0.81, 109.5 0 M109.5 0 C125.64 -0.52, 137.36 9.88, 136 26.5 M136 26.5 C136.75 46.61, 135.34 65.36, 136 79.5 M136 79.5 C136.4 95.66, 127.86 104.92, 109.5 106 M109.5 106 C84.21 104.2, 56.52 103.54, 26.5 106 M26.5 106 C8.22 107.46, -1.85 98.34, 0 79.5 M0 79.5 C-0.45 65.64, 0.66 54.12, 0 26.5 M0 26.5 C-1.14 10.63, 8.99 -0.18, 26.5 0" stroke="#364fc7" stroke-width="1.5" fill="none" stroke-dasharray="8 9"></path></g><g transform="translate(966.7929128011068 162.73337131076374) rotate(0 60.69596862792969 48)"><text x="60.69596862792969" y="0" font-family="Virgil, Segoe UI Emoji" font-size="16px" fill="#364fc7" text-anchor="middle" style="white-space: pre;" direction="ltr" dominant-baseline="text-before-edge">thread receive </text><text x="60.69596862792969" y="19.2" font-family="Virgil, Segoe UI Emoji" font-size="16px" fill="#364fc7" text-anchor="middle" style="white-space: pre;" direction="ltr" dominant-baseline="text-before-edge">data</text><text x="60.69596862792969" y="38.4" font-family="Virgil, Segoe UI Emoji" font-size="16px" fill="#364fc7" text-anchor="middle" style="white-space: pre;" direction="ltr" dominant-baseline="text-before-edge">and calculate </text><text x="60.69596862792969" y="57.599999999999994" font-family="Virgil, Segoe UI Emoji" font-size="16px" fill="#364fc7" text-anchor="middle" style="white-space: pre;" direction="ltr" dominant-baseline="text-before-edge">statistics</text><text x="60.69596862792969" y="76.8" font-family="Virgil, Segoe UI Emoji" font-size="16px" fill="#364fc7" text-anchor="middle" style="white-space: pre;" direction="ltr" dominant-baseline="text-before-edge"></text></g><g stroke-linecap="round" transform="translate(1147.0444098578555 277.51118299696174) rotate(0 56 49)"><path d="M24.5 0 M24.5 0 C40.99 2.38, 56.17 -1.27, 87.5 0 M87.5 0 C102.28 0.65, 110.98 6.4, 112 24.5 M112 24.5 C110.05 34, 110.37 47.23, 112 73.5 M112 73.5 C111.88 90.88, 105.45 97.78, 87.5 98 M87.5 98 C64.32 99.65, 44.28 98.96, 24.5 98 M24.5 98 C8.18 98.45, -1.66 90.2, 0 73.5 M0 73.5 C-0.17 59.32, -2.03 40.96, 0 24.5 M0 24.5 C-0.53 7.05, 9.81 0.32, 24.5 0" stroke="#364fc7" stroke-width="1.5" fill="none" stroke-dasharray="8 9"></path></g><g transform="translate(1153.5164481268985 288.11118299696176) rotate(0 49.52796173095703 38.400000000000006)"><text x="49.52796173095703" y="0" font-family="Virgil, Segoe UI Emoji" font-size="16px" fill="#364fc7" text-anchor="middle" style="white-space: pre;" direction="ltr" dominant-baseline="text-before-edge">thread </text><text x="49.52796173095703" y="19.2" font-family="Virgil, Segoe UI Emoji" font-size="16px" fill="#364fc7" text-anchor="middle" style="white-space: pre;" direction="ltr" dominant-baseline="text-before-edge">display data</text><text x="49.52796173095703" y="38.4" font-family="Virgil, Segoe UI Emoji" font-size="16px" fill="#364fc7" text-anchor="middle" style="white-space: pre;" direction="ltr" dominant-baseline="text-before-edge">acquisition</text><text x="49.52796173095703" y="57.599999999999994" font-family="Virgil, Segoe UI Emoji" font-size="16px" fill="#364fc7" text-anchor="middle" style="white-space: pre;" direction="ltr" dominant-baseline="text-before-edge"> rate</text></g><g stroke-linecap="round" transform="translate(965.7110765245226 395.06671142578114) rotate(0 76.88890245225696 33.80000000000001)"><path d="M16.9 0 M16.9 0 C59.57 1.34, 102.81 2.1, 136.88 0 M136.88 0 C146.92 1.84, 155.27 5.67, 153.78 16.9 M153.78 16.9 C152.36 30.01, 155.01 40.81, 153.78 50.7 M153.78 50.7 C153.51 62.26, 149.01 65.83, 136.88 67.6 M136.88 67.6 C112.43 69.34, 86.38 68.78, 16.9 67.6 M16.9 67.6 C5.16 66.28, 1.87 61.38, 0 50.7 M0 50.7 C2 39.55, -0.84 27.46, 0 16.9 M0 16.9 C-0.36 4.88, 4.37 -1.4, 16.9 0" stroke="#364fc7" stroke-width="1.5" fill="none" stroke-dasharray="8 9"></path></g><g transform="translate(985.8560214572484 409.66671142578116) rotate(0 56.74395751953125 19.19999999999999)"><text x="56.74395751953125" y="0" font-family="Virgil, Segoe UI Emoji" font-size="16px" fill="#364fc7" text-anchor="middle" style="white-space: pre;" direction="ltr" dominant-baseline="text-before-edge">thread write </text><text x="56.74395751953125" y="19.2" font-family="Virgil, Segoe UI Emoji" font-size="16px" fill="#364fc7" text-anchor="middle" style="white-space: pre;" direction="ltr" dominant-baseline="text-before-edge">results to file</text></g><g stroke-linecap="round" transform="translate(1282.1555752224394 379.0666842990451) rotate(0 49.33336046006946 43.55555216471356)"><path d="M21.78 0 M21.78 0 C34.15 0.61, 45.04 1.4, 76.89 0 M21.78 0 C38.36 -0.71, 55.09 -0.19, 76.89 0 M76.89 0 C92.32 0.27, 98.56 7.4, 98.67 21.78 M76.89 0 C91.65 -2.2, 98.36 9.43, 98.67 21.78 M98.67 21.78 C100.18 35.87, 99 50.79, 98.67 65.33 M98.67 21.78 C98.1 37.23, 98.62 52.4, 98.67 65.33 M98.67 65.33 C97.67 80.71, 91.34 85.21, 76.89 87.11 M98.67 65.33 C99.94 81.49, 93.59 89.07, 76.89 87.11 M76.89 87.11 C65.3 85.8, 52.45 87.41, 21.78 87.11 M76.89 87.11 C65.15 86.9, 54.4 87.81, 21.78 87.11 M21.78 87.11 C7.23 86.68, 0.47 78.17, 0 65.33 M21.78 87.11 C6.93 88.39, -0.01 79.25, 0 65.33 M0 65.33 C0.98 54.35, -0.11 43.88, 0 21.78 M0 65.33 C-0.22 53.26, -0.79 39.99, 0 21.78 M0 21.78 C-0.2 6.31, 9.19 0.85, 21.78 0 M0 21.78 C-1.5 9.32, 5.84 1.86, 21.78 0" stroke="#000000" stroke-width="1" fill="none"></path></g><g transform="translate(1288.088979932997 403.4222364637587) rotate(0 43.39995574951172 19.19999999999999)"><text x="43.39995574951172" y="0" font-family="Virgil, Segoe UI Emoji" font-size="16px" fill="#000000" text-anchor="middle" style="white-space: pre;" direction="ltr" dominant-baseline="text-before-edge">file</text><text x="43.39995574951172" y="19.2" font-family="Virgil, Segoe UI Emoji" font-size="16px" fill="#000000" text-anchor="middle" style="white-space: pre;" direction="ltr" dominant-baseline="text-before-edge">results.txt</text></g><g stroke-linecap="round"><g transform="translate(1106.1043192751467 177.79188555837715) rotate(0 82.08311807614916 1.0103426971802634)"><path d="M-0.56 -0.8 C26.79 -0.29, 137.17 2.45, 164.72 2.82" stroke="#000000" stroke-width="1.5" fill="none" stroke-dasharray="8 9"></path></g><g transform="translate(1106.1043192751467 177.79188555837715) rotate(0 82.08311807614916 1.0103426971802634)"><path d="M135 11.34 C147.6 8.13, 155.3 6.56, 164.86 3.6" stroke="#000000" stroke-width="1.5" fill="none"></path></g><g transform="translate(1106.1043192751467 177.79188555837715) rotate(0 82.08311807614916 1.0103426971802634)"><path d="M135.4 -9.17 C147.82 -5.14, 155.37 0.53, 164.86 3.6" stroke="#000000" stroke-width="1.5" fill="none"></path></g></g><mask></mask><g stroke-linecap="round"><g transform="translate(1069.7110493977866 266.1778225368923) rotate(0 35.4235165223065 20.432718316258658)"><path d="M-0.55 -0.19 C11.17 6.57, 59.5 34.19, 71.4 41.06" stroke="#000000" stroke-width="1.5" fill="none" stroke-dasharray="8 9"></path></g><g transform="translate(1069.7110493977866 266.1778225368923) rotate(0 35.4235165223065 20.432718316258658)"><path d="M41.52 36.41 C52.13 37.66, 63.5 38.29, 71.96 42.36" stroke="#000000" stroke-width="1.5" fill="none"></path></g><g transform="translate(1069.7110493977866 266.1778225368923) rotate(0 35.4235165223065 20.432718316258658)"><path d="M51.73 18.61 C58.45 26.71, 65.86 34.25, 71.96 42.36" stroke="#000000" stroke-width="1.5" fill="none"></path></g></g><mask></mask><g stroke-linecap="round"><g transform="translate(1025.2666049533418 267.95557318793396) rotate(0 1.5823723709004298 62.54283660894467)"><path d="M-1.08 1.02 C-0.54 21.71, 3.01 103.32, 4.25 124.07" stroke="#000000" stroke-width="1.5" fill="none" stroke-dasharray="8 9"></path></g><g transform="translate(1025.2666049533418 267.95557318793396) rotate(0 1.5823723709004298 62.54283660894467)"><path d="M-5.72 94.62 C-3.62 108.79, 3.19 115.89, 4.2 122.93" stroke="#000000" stroke-width="1.5" fill="none"></path></g><g transform="translate(1025.2666049533418 267.95557318793396) rotate(0 1.5823723709004298 62.54283660894467)"><path d="M14.78 93.59 C9.08 107.96, 8.08 115.46, 4.2 122.93" stroke="#000000" stroke-width="1.5" fill="none"></path></g></g><mask></mask><g stroke-linecap="round"><g transform="translate(851.417551287101 261.40868004121074) rotate(0 40.225646081959894 -0.31745533610865095)"><path d="M0.19 -0.76 C13.72 -0.71, 66.7 0.07, 80.26 0.12" stroke="#000000" stroke-width="1.5" fill="none" stroke-dasharray="8 9"></path></g><g transform="translate(851.417551287101 261.40868004121074) rotate(0 40.225646081959894 -0.31745533610865095)"><path d="M50.71 8.94 C58.29 8.87, 63.61 4.05, 81.77 -1.82" stroke="#000000" stroke-width="1.5" fill="none"></path></g><g transform="translate(851.417551287101 261.40868004121074) rotate(0 40.225646081959894 -0.31745533610865095)"><path d="M50.91 -11.58 C58.42 -7.08, 63.7 -7.32, 81.77 -1.82" stroke="#000000" stroke-width="1.5" fill="none"></path></g></g><mask></mask><g stroke-linecap="round"><g transform="translate(933.7110900878905 305.0168720989642) rotate(0 -42.43249168011937 -0.2612534096790853)"><path d="M0.42 0.39 C-13.75 0.43, -70.81 -0.96, -85.28 -0.91" stroke="#000000" stroke-width="1.5" fill="none" stroke-dasharray="8 9"></path></g><g transform="translate(933.7110900878905 305.0168720989642) rotate(0 -42.43249168011937 -0.2612534096790853)"><path d="M-56.32 -9.24 C-66.42 -8.25, -71.64 -3.23, -84.9 -0.23" stroke="#000000" stroke-width="1.5" fill="none"></path></g><g transform="translate(933.7110900878905 305.0168720989642) rotate(0 -42.43249168011937 -0.2612534096790853)"><path d="M-56.57 11.28 C-66.41 6.57, -71.56 5.88, -84.9 -0.23" stroke="#000000" stroke-width="1.5" fill="none"></path></g></g><mask></mask><g transform="translate(861.7110358344186 229.73335774739587) rotate(0 28.831993103027344 9.599999999999994)"><text x="0" y="0" font-family="Virgil, Segoe UI Emoji" font-size="16px" fill="#000000" text-anchor="start" style="white-space: pre;" direction="ltr" dominant-baseline="text-before-edge">connect</text></g><g transform="translate(853.7110222710504 312.4000176323784) rotate(0 39.47998046875 9.599999999999994)"><text x="0" y="0" font-family="Virgil, Segoe UI Emoji" font-size="16px" fill="#000000" text-anchor="start" style="white-space: pre;" direction="ltr" dominant-baseline="text-before-edge">disconnect</text></g></svg>